<svg height="512" viewBox="0 0 512 512" width="512" xmlns="http://www.w3.org/2000/svg"><g id="Winking_Face" data-name="Winking Face"><g id="Flat"><path d="m240 512c-66.7 0-128.262-27.927-173.342-78.636-42.358-47.652-66.658-112.299-66.658-177.364s24.3-129.712 66.658-177.364c45.08-50.709 106.642-78.636 173.342-78.636 72.332 0 139.1 19.218 188.009 54.113 54.947 39.204 83.991 95.187 83.991 161.887 0 64.3-30.883 138.063-82.611 197.31-54.759 62.719-123.789 98.69-189.389 98.69z" fill="#ffcc80"/><circle cx="184" cy="152" fill="#616161" r="24"/><circle cx="176" cy="144" fill="#fff" r="8"/><path d="m407.96 176a7.974 7.974 0 0 1 -5.657-2.343c-26.217-26.215-80.3-8.662-86.384-6.574a9 9 0 0 1 -11.9-9.034c1.618-28.825 37.85-46.049 71.941-46.049a8 8 0 0 1 0 16c-22.7 0-43.163 8.454-51.735 20.033 22.431-5.5 64.053-11.029 89.392 14.31a8 8 0 0 1 -5.657 13.657zm-97.232-24.051h-.01z" fill="#424242"/><path d="m328 304h-153.373a62.214 62.214 0 0 1 -44.283-18.343 8 8 0 1 1 11.312-11.314 46.326 46.326 0 0 0 32.971 13.657h153.373a56.063 56.063 0 0 0 56-56 8 8 0 0 1 16 0 72.081 72.081 0 0 1 -72 72z" fill="#ef5350"/><path d="m288 336h-64a8 8 0 0 1 0-16h64a8 8 0 0 1 0 16z" fill="#ffb74d"/><path d="m199.915 134.057c.051.641.085 1.288.085 1.943a23.983 23.983 0 0 1 -39.915 17.943 24 24 0 1 0 39.83-19.886z" fill="#424242"/><path d="m463.669 85.861c.207 4.689.331 9.4.331 14.139 0 174.522-141.478 316-316 316a315.361 315.361 0 0 1 -108.233-19.028 254.869 254.869 0 0 0 26.891 36.392c45.08 50.709 106.642 78.636 173.342 78.636 65.6 0 134.63-35.971 189.389-98.69 51.728-59.247 82.611-133.01 82.611-197.31 0-50.363-16.568-94.607-48.331-130.139z" fill="#ffb74d"/><g fill="#ffe4c0"><circle cx="80" cy="216" r="24"/><circle cx="448" cy="200" r="24"/></g></g></g></svg>